PathFileType	4	(X/Y/Z)	C:/Users/beibeiliu/ov580/test_trc\sequence.17_training_dense_right.trc
DataRate	CameraRate	NumFrames	NumMarkers	Units	OrigDataRate	OrigDataStartFrame	OrigNumFrames
120	120	14	19	mm	120	27	78
Frame#	Time	ThumbCMC			ThumbMCP			ThumbIP			ThumbTip			IndexMCP			IndexPIP			IndexTip			MiddleMCP			MiddlePIP			MiddleTip			RingMCP			RingPIP			RingTip			PinkyMCP			PinkyPIP			PinkyTip			BackHand1			BackHand2			BackHand3	
		X0	Y0	Z0	X1	Y1	Z1	X2	Y2	Z2	X3	Y3	Z3	X4	Y4	Z4	X5	Y5	Z5	X6	Y6	Z6	X7	Y7	Z7	X8	Y8	Z8	X9	Y9	Z9	X10	Y10	Z10	X11	Y11	Z11	X12	Y12	Z12	X13	Y13	Z13	X14	Y14	Z14	X15	Y15	Z15	X16	Y16	Z16	X17	Y17	Z17	X18	Y18	Z18	
26	0.216667	116.088	78.8239	22.9403	118.667	107.396	23.7677	115.282	130.648	21.4122	100.332	151.301	21.3916	89.1619	113.581	-19.4326	83.1364	140.662	-13.3226	92.1956	146.568	16.1725	64.2525	107.409	-19.7305	53.3115	132.424	-28.7658	44.6025	153.303	-34.122	46.3164	104.262	-8.18559	36.6254	122.936	-15.8179	24.886	139.021	-20.8229	31.6964	96.2551	21.5115	23.7523	111.116	17.2044	10.8257	121.325	17.0223	66.4401	65.5567	13.3557	73.8704	46.0985	29.1629	93.9819	56.4291	9.67741	
27	0.225	113.271	74.3362	24.4449	118.878	104.574	19.1663	112.831	130.032	8.26917	104.143	149.052	7.00732	85.4375	108.62	-26.5496	87.6925	134.989	-23.4594	94.2	142.65	6.77645	62.06	103.378	-27.4371	54.2733	123.936	-41.233	52.0536	148.398	-54.2827	43.0926	99.9165	-10.5277	37.7625	119.063	-26.2911	26.6108	136.72	-34.9287	29.2852	100.534	12.825	19.8161	113.386	11.5236	8.46837	128.382	-0.0736715	57.3027	67.6665	12.8997	67.6156	47.0129	32.9558	84.4084	57.9551	9.98367	
28	0.233333	107.118	78.5059	22.0056	114.539	105.727	7.89012	112.443	123.356	-2.94907	103.7	144.522	-13.0327	88.1494	100.663	-36.5429	90.8926	126.346	-36.1935	94.9284	135.655	-4.4673	61.3719	94.2778	-36.9218	58.6676	108.512	-54.6599	53.5667	128.271	-73.8846	42.1941	97.2443	-22.8686	35.0229	109.455	-38.815	30.416	122.736	-52.9626	28.2102	103.145	1.34044	18.5554	114.96	-7.37087	6.81934	123.146	-14.3408	55.452	69.0231	13.6318	59.8815	56.5759	37.6124	82.2219	59.3429	11.6862	
29	0.241667	106.521	81.6125	23.596	116.042	104.915	4.75577	116.606	121.626	-16.0641	101.137	137.158	-29.5423	87.2084	92.5641	-41.1364	91.9395	116.105	-45.5619	95.1514	130.004	-19.6942	61.7807	83.6829	-42.0707	59.0146	94.0852	-63.7254	59.1087	105.199	-88.047	44.1002	89.542	-25.8721	38.1353	96.0492	-49.312	33.8843	102.735	-68.0246	31.1519	100.01	-6.51601	18.9005	109.342	-19.3115	7.56208	112.75	-27.5683	54.8731	72.828	12.4883	57.8501	65.3967	39.6329	84.0257	61.9042	18.8931	
30	0.25	112.471	84.1445	20.3946	121.06	102.773	-2.31708	119.039	114.564	-21.0706	107.634	126.322	-37.2083	96.4782	79.1811	-40.5495	93.9614	105.359	-49.5663	97.6388	122.26	-28.1966	68.3527	71.4588	-41.0936	64.8859	75.3014	-66.1837	61.109	81.5192	-89.4262	48.5384	76.4924	-29.1495	44.3884	76.2788	-50.7495	34.3013	79.3048	-71.7609	36.152	89.9428	-12.7389	25.6138	93.284	-28.0183	13.2661	93.3302	-37.1031	59.6029	72.228	14.5831	64.6941	70.6464	38.4687	87.942	62.6857	22.2822	
31	0.258333	117.452	83.487	21.7694	124.809	96.9464	-7.97884	122.843	103.213	-27.6571	110.971	111.627	-48.8685	98.8981	63.2976	-36.2439	99.3457	89.0786	-52.203	97.7989	109.706	-31.6547	75.4152	51.3507	-37.5791	71.2667	51.2838	-60.8948	70.3699	52.9228	-88.8322	57.6899	56.1963	-26.4591	50.2773	51.6697	-47.4601	48.231	49.1407	-66.2271	40.6967	72.4008	-10.6511	32.2181	69.9409	-27.2308	21.6647	66.3777	-43.5861	68.8576	63.9324	16.431	74.1361	66.8978	43.7624	92.8357	60.5755	26.1289	
32	0.266667	124.508	85.8044	26.7529	128.37	93.7034	-7.06897	127.286	94.7524	-30.2549	113.478	95.4034	-50.3754	112.492	52.428	-29.354	107.88	78.0394	-48.3505	100.783	96.9187	-32.296	92.7578	36.8278	-26.0391	92.1533	32.3526	-54.9256	83.9536	36.0965	-80.8333	73.4609	37.4868	-17.3329	71.2333	29.1388	-40.3045	66.0422	28.7757	-64.474	55.6351	49.0779	-6.03663	45.0486	43.635	-24.3407	43.2237	42.1904	-48.5699	77.2057	51.7438	25.0532	78.3561	61.3595	46.7885	103.535	55.13	30.1027	
33	0.275	113.241	98.2917	35.9741	111.679	109.231	8.15581	112.857	110.406	-15.425	107.291	103.468	-41.8866	127.412	77.3685	-23.2005	109.631	91.3736	-38.0101	87.3262	97.5278	-20.2406	113.312	48.7284	-20.9199	115.597	52.0514	-50.1037	107.533	60.8636	-73.1441	100.514	37.894	-17.1374	101.733	37.3791	-40.2393	96.0365	43.5153	-60.1934	83.0953	38.0632	-5.69823	83.572	36.4856	-25.4224	83.9322	40.702	-49.276	96.6827	45.9997	31.6875	93.9932	53.4074	52.5983	117.038	67.2598	41.3167	
34	0.283333	74.3566	97.5471	47.1829	62.0002	107.822	19.6012	61.1627	113.107	2.17827	60.1716	121.489	-24.3941	102.855	127.679	1.3074	79.8323	127.898	-19.0735	67.1025	105.203	-13.8959	120.022	118.748	-5.18427	118.756	127.872	-28.1537	106.553	132.047	-55.5421	126.606	97.3859	-4.54859	128.982	107.091	-25.2765	120.438	119.019	-48.0547	124.142	76.0418	-2.18727	128.548	85.5334	-19.6085	128.887	98.9752	-34.5062	117.078	70.7666	34.5574	109.515	62.3315	56.3548	105.92	92.9092	51.7208	
35	0.291667	61.264	89.6874	44.9407	45.2183	102.06	15.6684	37.9709	110.151	-1.67516	40.4703	118.138	-22.6767	69.8992	147.546	10.074	62.951	143.02	-14.1705	53.7893	116.357	-20.7887	97.3379	150.278	9.06837	94.1408	166.992	-9.51104	89.6762	176.481	-34.371	116.224	131.392	7.11606	114.267	154.54	-7.67286	113.092	167.643	-28.271	125.945	114.932	4.56324	130.132	125.635	-4.9341	135.09	142.56	-19.2615	111.404	99.8285	37.4488	110.563	78.0474	53.5371	93.0153	102.147	53.065	
36	0.3	55.0627	88.0075	34.3635	39.2651	89.9422	9.60514	28.6978	102.677	-12.7838	27.2717	108.66	-31.7562	52.2208	145.155	3.12456	41.2919	140.116	-21.947	47.3194	115.179	-32.3319	70.4706	155.931	6.9897	67.6129	172.605	-8.79245	58.9444	191.139	-28.8032	95.9641	145.375	5.66975	93.585	168.697	-7.35677	90.4817	185.39	-20.1475	115.305	127.856	2.31476	122.337	148.179	-6.93328	123.556	160.576	-9.49611	99.8588	111.063	30.5117	103.71	95.1646	45.9009	80.4429	104.045	47.8777	
37	0.308333	53.3408	78.9776	27.3507	33.8241	78.2414	1.12943	23.5187	88.2799	-23.1412	23.7884	94.5765	-43.0863	36.9585	133.524	-8.53367	32.3294	128.794	-35.3563	38.7503	99.4515	-42.2498	54.8061	151.258	-6.34457	49.2042	166.978	-23.1007	40.6882	183.505	-41.7248	80.1636	147.008	-3.80942	73.9753	168.724	-17.1559	68.8005	183.104	-26.1026	104.078	135.98	-6.41626	107.033	153.365	-13.8944	107.93	169.909	-15.9559	90.5251	116.107	24.3342	98.8598	103.064	38.8147	68.3242	108.561	36.0833	
38	0.316667	49.3794	73.345	21.1289	33.9086	67.6774	-6.44668	25.1198	73.0408	-31.4723	26.4743	75.3721	-51.2327	26.7916	119.983	-27.8084	26.4471	107.27	-51.4018	43.9558	83.4829	-48.8566	45.6145	140.241	-23.593	33.7478	150.608	-41.0491	23.429	164.445	-62.3965	64.8196	143.62	-20.2311	62.4872	157.922	-31.0988	53.4289	173.02	-43.4226	91.8996	133.743	-15.4693	95.2401	146.92	-23.3962	93.5107	164.241	-27.0543	79.5227	115.511	13.5343	85.8773	105.863	32.0439	59.2106	106.911	27.2717	
39	0.325	44.962	66.4907	14.5515	36.4767	58.7572	-16.3762	34.3012	59.2425	-38.8335	37.1251	57.0758	-58.4205	25.799	100.992	-38.6154	28.8218	87.2142	-64.8467	49.8714	65.5901	-55.4756	36.1195	124.107	-43.4016	30.6661	131.467	-65.927	24.7765	138.633	-88.9367	61.123	134.652	-38.1135	53.8054	144.956	-52.3409	46.7308	157.36	-67.6164	82.5043	130.276	-28.1386	86.8617	144.257	-37.3852	85.7702	160.721	-43.0461	73.5518	116.272	2.09604	81.1475	108.181	25.3813	49.805	103.055	15.671	
